<svg width="66" height="71" viewBox="0 0 66 71" fill="none" xmlns="http://www.w3.org/2000/svg">
<path d="M32.7971 0C31.7989 0 30.8007 0.243881 29.9397 0.73618L2.84512 16.3775C1.09485 17.3882 0.00476074 19.304 0.00476074 21.3277V49.7041C0.00476074 51.7538 1.09485 53.6425 2.84512 54.6532L9.95737 58.7549C13.4023 60.4496 14.6308 60.4473 16.1894 60.4473C21.3018 60.4473 24.2261 57.3586 24.2261 52V22.7206C24.2261 22.2839 23.8733 21.9255 23.4355 21.9255H20.0189C19.5538 21.9255 19.2226 22.2839 19.2226 22.7206V51.9728C19.2226 54.3787 16.7373 56.7301 12.7183 54.7337L5.28053 50.4403C5.00716 50.3041 4.84268 50.0047 4.84268 49.7041V21.3538C4.84268 21.0259 5.00716 20.7492 5.28053 20.5847L32.3751 4.95022C32.6213 4.78574 32.9502 4.78574 33.2236 4.95022L60.3182 20.5847C60.5916 20.7492 60.7561 21.0259 60.7561 21.3277V49.7041C60.7561 50.0047 60.5916 50.3041 60.3455 50.4403L33.2236 66.1076C32.9775 66.2449 32.6213 66.2449 32.3751 66.1076L25.4013 61.9798C25.2096 61.8437 24.9407 61.8176 24.749 61.9265C22.8082 63.02 22.4532 63.1561 20.6484 63.7845C20.2106 63.9218 19.5266 64.194 20.8946 64.9597L29.9397 70.3205C30.8143 70.8128 31.8023 71.0851 32.7858 71.0851C33.7976 71.0851 34.7788 70.8128 35.6534 70.3205L62.7809 54.6532C64.53 53.6425 65.6212 51.7538 65.6212 49.7041V21.3538C65.6212 19.3029 64.53 17.4154 62.7809 16.4036L35.6534 0.73618C34.7924 0.243881 33.7942 0 32.7971 0ZM40.0863 21.888C32.3479 21.888 27.7289 25.1663 27.7289 30.6349C27.7289 36.5674 32.3184 38.2054 39.7551 38.9438C48.6403 39.8184 49.3243 41.1342 49.3243 42.8845C49.3243 45.8916 46.8946 47.1779 41.181 47.1779C33.9904 47.1779 32.4035 45.3709 31.884 41.816C31.8295 41.4337 31.5028 41.1592 31.1206 41.1592H27.5905C27.1527 41.1592 26.8271 41.5188 26.8271 41.9283C26.8271 46.4939 29.3147 51.9308 41.181 51.9308C49.7656 51.9308 54.6852 48.5448 54.6852 42.6383C54.6852 36.7875 50.7207 35.2266 42.4083 34.1059C33.9609 33.0124 33.1113 32.4373 33.1113 30.4692C33.1113 28.829 33.852 26.6726 40.0863 26.6726C45.6355 26.6726 47.7124 27.8716 48.5598 31.6172C48.6426 31.9722 48.9409 32.2479 49.3243 32.2479H52.8532C53.0721 32.2479 53.2604 32.139 53.4249 31.9745C53.5622 31.8384 53.645 31.6172 53.6166 31.3722C53.0699 24.919 48.7798 21.888 40.0863 21.888Z" fill="#B988C5"/>
</svg>
