<svg width="35" height="73" viewBox="0 0 35 73" fill="none" xmlns="http://www.w3.org/2000/svg">
<path d="M24.0109 8.13636C20.8649 4.50127 18.1558 0.809375 17.6024 0.0425986C17.5441 -0.0141995 17.4567 -0.0141995 17.3985 0.0425986C16.845 0.809375 14.1359 4.50127 10.99 8.13636C-16.0131 41.6756 15.2429 64.3099 15.2429 64.3099L15.505 64.4802C15.7381 67.9735 16.3207 73 16.3207 73H17.4858H18.651C18.651 73 19.2336 68.0018 19.4667 64.4802L19.7288 64.2816C19.7579 64.2816 51.0138 41.6756 24.0109 8.13636ZM17.4858 63.7986C17.4858 63.7986 16.0876 62.6343 15.709 62.0378V61.9812L17.3985 25.4598C17.3985 25.3462 17.5733 25.3462 17.5733 25.4598L19.2627 61.9812V62.0378C18.884 62.6343 17.4858 63.7986 17.4858 63.7986Z" fill="#B988C5"/>
</svg>
