<svg width="80" height="72" viewBox="0 0 80 72" fill="none" xmlns="http://www.w3.org/2000/svg">
<path d="M65.4578 23.134C64.6102 22.843 63.7559 22.5736 62.8951 22.3256C63.0389 21.7354 63.1727 21.1502 63.29 20.5766C65.2298 11.1554 63.9625 3.56416 59.6302 1.06627C55.4764 -1.33077 48.6856 1.16877 41.8254 7.14155C41.1497 7.73006 40.4888 8.33676 39.8427 8.95999C39.4115 8.54671 38.972 8.14004 38.5242 7.74163C31.3352 1.35557 24.128 -1.33573 19.8024 1.17042C15.6519 3.57243 14.4243 10.709 16.1707 19.6376C16.3442 20.522 16.5408 21.4015 16.7589 22.276C15.7378 22.567 14.7547 22.8744 13.8129 23.2034C5.38308 26.1443 0 30.7516 0 35.5308C0 40.4671 5.77962 45.4182 14.5581 48.4203C15.2702 48.6633 15.9873 48.8882 16.711 49.0948C16.4764 50.0371 16.2665 50.9844 16.0848 51.9382C14.421 60.7114 15.7213 67.6794 19.8586 70.0665C24.133 72.533 31.3071 69.9987 38.2912 63.8887C38.858 63.3928 39.4115 62.882 39.9534 62.3579C40.6523 63.0324 41.3694 63.687 42.1047 64.3218C48.8707 70.1475 55.5541 72.4999 59.6881 70.1045C63.9575 67.6314 65.3454 60.1477 63.5445 51.0422C63.4024 50.3281 63.2437 49.6189 63.0669 48.913C63.5709 48.7642 64.0649 48.6104 64.5474 48.4501C73.6745 45.4249 79.6111 40.5332 79.6111 35.5308C79.6111 30.7334 74.0545 26.0947 65.4578 23.134ZM63.4784 45.2199C63.0422 45.3637 62.5961 45.5026 62.14 45.6381C61.1321 42.4476 59.7723 39.0537 58.1085 35.5474C59.6963 32.1254 61.0049 28.7745 61.9831 25.6038C62.7976 25.8402 63.5891 26.0881 64.3508 26.351C71.7166 28.8885 76.2107 32.6412 76.2107 35.5308C76.2107 38.6106 71.358 42.6079 63.4784 45.2199ZM60.2085 51.7035C61.0049 55.7288 61.1173 59.369 60.5902 62.2157C60.116 64.7731 59.1626 66.4775 57.9829 67.1603C55.4748 68.6134 50.1099 66.7255 44.3237 61.743C43.6396 61.1528 42.9721 60.5428 42.3211 59.9162C44.5649 57.4613 46.807 54.608 48.9946 51.439C52.8427 51.0968 56.4794 50.538 59.7773 49.7759C59.9359 50.414 60.0797 51.0571 60.2085 51.7035ZM27.1418 66.909C24.6914 67.7752 22.7385 67.8 21.5588 67.1189C19.0473 65.6708 18.0031 60.0766 19.4273 52.573C19.5959 51.6853 19.7908 50.8042 20.0089 49.928C23.2688 50.6504 26.879 51.1695 30.7371 51.4819C32.9396 54.5832 35.2461 57.4332 37.5709 59.9295C37.0768 60.4072 36.5712 60.8734 36.0541 61.328C32.9643 64.0292 29.8696 65.9452 27.1418 66.909ZM15.6585 45.2017C11.7773 43.8742 8.5703 42.1483 6.37279 40.2654C4.39833 38.5743 3.40201 36.8947 3.40201 35.5308C3.40201 32.6312 7.72434 28.9315 14.9315 26.4171C15.8072 26.1113 16.7226 25.8236 17.6726 25.5542C18.6689 28.796 19.9759 32.1865 21.5521 35.6135C19.9544 39.0933 18.6293 42.5368 17.6231 45.8167C16.9638 45.6282 16.3079 45.4232 15.6585 45.2017ZM19.5083 18.9846C18.0113 11.3339 19.006 5.5628 21.5059 4.11465C24.1693 2.57228 30.058 4.77095 36.2656 10.2858C36.6704 10.6462 37.0686 11.0148 37.4601 11.3901C35.147 13.8748 32.8619 16.7033 30.6793 19.7864C26.9352 20.1335 23.3498 20.6906 20.0552 21.4379C19.852 20.6245 19.6702 19.8062 19.5083 18.9846ZM53.849 27.4685C53.0707 26.1228 52.2628 24.7954 51.4284 23.4844C53.9679 23.8068 56.4017 24.2333 58.6868 24.7541C58.0011 26.9544 57.1452 29.2555 56.139 31.6129C55.4037 30.216 54.6387 28.834 53.849 27.4685ZM39.8444 13.8219C41.4124 15.5213 42.9837 17.4207 44.5302 19.4805C41.3942 19.3318 38.2549 19.3318 35.1205 19.4772C36.6671 17.4373 38.2516 15.5411 39.8444 13.8219ZM25.7505 27.4916C24.969 28.8472 24.2206 30.221 23.5035 31.6113C22.5121 29.2605 21.6661 26.9494 20.9739 24.7177C23.2457 24.2102 25.6679 23.7936 28.1909 23.4778C27.3466 24.797 26.5321 26.1344 25.7505 27.4916ZM28.2636 47.8252C25.6564 47.5343 23.1978 47.1408 20.9259 46.6449C21.6298 44.3735 22.4956 42.0144 23.5068 39.6141C24.2272 41.0044 24.9789 42.3798 25.7638 43.7354C26.5701 45.1289 27.4061 46.4944 28.2636 47.8252ZM39.9385 57.4812C38.3259 55.7404 36.7183 53.8162 35.1486 51.7448C36.672 51.8043 38.2268 51.8357 39.8064 51.8357C41.4289 51.8357 43.0332 51.7993 44.6112 51.7283C43.0613 53.836 41.4966 55.7636 39.9385 57.4812ZM56.1704 39.4918C57.2345 41.9186 58.1316 44.266 58.8438 46.4977C56.5355 47.0251 54.0439 47.4499 51.4185 47.764C52.2595 46.43 53.0741 45.0793 53.8622 43.7122C54.6635 42.3219 55.4335 40.9151 56.1704 39.4918ZM50.9162 42.0111C49.71 44.1073 48.4361 46.1638 47.0962 48.1773C44.6706 48.3493 42.2385 48.4352 39.8064 48.4336C37.328 48.4336 34.919 48.3559 32.5975 48.2054C31.2245 46.1969 29.9258 44.1371 28.7064 42.031H28.7081C27.4937 39.9348 26.3619 37.794 25.311 35.6118C26.3586 33.4297 27.4887 31.2889 28.6965 29.1911C29.906 27.0932 31.1931 25.0434 32.5562 23.0431C34.9239 22.8645 37.3528 22.7703 39.8064 22.7703C42.2715 22.7703 44.702 22.8645 47.0697 23.0447C48.4196 25.0417 49.6985 27.0866 50.9046 29.1729C52.1174 31.2658 53.2624 33.3966 54.3364 35.5639C53.274 37.7527 52.1323 39.9034 50.9162 42.0111ZM57.9317 4.01381C60.5968 5.55123 61.6344 11.7554 59.959 19.8905C59.8516 20.4096 59.7327 20.937 59.6021 21.4742C56.2993 20.7105 52.7122 20.1435 48.9566 19.7913C46.769 16.6735 44.5021 13.84 42.2269 11.3868C42.8234 10.8132 43.4347 10.2527 44.0576 9.70721C49.9364 4.59076 55.4285 2.56897 57.9317 4.01381ZM39.8064 28.4191C43.7321 28.4191 46.9161 31.603 46.9161 35.5308C46.9161 39.4587 43.7321 42.6443 39.8064 42.6443C35.8806 42.6443 32.6967 39.4587 32.6967 35.5308C32.6967 31.603 35.8806 28.4191 39.8064 28.4191Z" fill="#B988C5"/>
</svg>
