<svg width="819" height="660" viewBox="0 0 819 660" fill="none" xmlns="http://www.w3.org/2000/svg">
<mask id="mask0_22_1182" style="mask-type:luminance" maskUnits="userSpaceOnUse" x="180" y="182" width="503" height="239">
<path d="M180.462 182.255H682.712V420.609H180.462V182.255Z" fill="white"/>
</mask>
<g mask="url(#mask0_22_1182)">
<path d="M679.069 722.343L678.164 765.589C678.164 765.589 643.644 770.076 627.303 770.076L614.584 730.448C614.584 730.448 589.165 652.063 567.371 517.841L571.18 637.61C571.18 637.61 531.369 643.154 431.549 643.154H431.158C331.343 643.154 291.527 637.61 291.527 637.61L295.336 517.841C273.538 652.063 248.131 730.448 248.131 730.448L235.408 770.076C219.068 770.076 184.543 765.589 184.543 765.589L183.639 722.343C166.398 688.995 228.588 369.839 246.9 314.839C265.177 259.835 351.369 246.666 351.369 246.666C339.029 235.49 358.215 187.63 368.288 186.796C383.206 182.217 425.706 182.47 431.226 182.533C431.226 182.533 431.422 182.533 431.808 182.533C437.328 182.47 479.828 182.217 494.742 186.796C504.819 187.63 524.005 235.49 511.665 246.666C511.665 246.666 597.53 259.835 615.837 314.839C634.148 369.839 696.348 688.995 679.069 722.343Z" fill="#BDB8FF"/>
</g>
<path d="M494.037 186.114L494.003 186.181C494.003 186.181 460.901 195.693 431.264 194.859C405.849 195.563 376.654 188.131 368.87 185.987C384.472 181.631 425.578 181.918 430.967 181.985C430.967 181.985 431.163 181.985 431.553 181.985C436.976 181.918 478.762 181.631 494.037 186.114Z" fill="#9790EB"/>
<mask id="mask1_22_1182" style="mask-type:luminance" maskUnits="userSpaceOnUse" x="238" y="323" width="14" height="98">
<path d="M238.08 323.529H251.125V420.609H238.08V323.529Z" fill="white"/>
</mask>
<g mask="url(#mask1_22_1182)">
<path d="M244.246 325.219C242.704 335.59 241.587 346.067 240.742 356.54C240.317 361.78 239.995 367.025 239.761 372.278C239.528 377.527 239.383 382.784 239.383 388.042C239.379 393.299 239.468 398.552 239.774 403.805C240.071 409.05 240.483 414.295 241.218 419.501C241.935 424.704 242.891 429.885 244.271 434.962C245.655 440.034 247.507 445.009 250.186 449.563C247.426 445.055 245.481 440.097 244.008 435.038C242.53 429.97 241.485 424.788 240.666 419.581C239.838 414.366 239.332 409.117 238.942 403.856C238.547 398.594 238.36 393.32 238.271 388.046C238.177 382.776 238.232 377.502 238.373 372.232C238.513 366.957 238.746 361.687 239.077 356.422C239.74 345.894 240.678 335.396 242.042 324.899C242.122 324.3 242.679 323.871 243.29 323.946C243.897 324.026 244.33 324.583 244.25 325.181C244.25 325.189 244.25 325.193 244.25 325.198L244.246 325.219Z" fill="#BDB8FF"/>
</g>
<mask id="mask2_22_1182" style="mask-type:luminance" maskUnits="userSpaceOnUse" x="177" y="311" width="256" height="110">
<path d="M177.201 311.667H432.674V420.609H177.201V311.667Z" fill="white"/>
</mask>
<g mask="url(#mask2_22_1182)">
<path d="M234.559 772.54C218.252 772.54 184.819 768.201 183.401 768.016C182.271 767.868 181.422 766.929 181.4 765.8L180.504 723.055C170.61 701.675 187.685 590.951 198.811 526.506C214.014 438.441 234.219 343.244 243.851 314.291C244.25 313.095 245.553 312.446 246.764 312.842C247.97 313.234 248.624 314.527 248.229 315.728C238.653 344.496 218.52 439.398 203.351 527.273C184.437 636.86 177.689 707.641 184.84 721.466C185.002 721.774 185.087 722.115 185.099 722.465L185.961 763.74C193.193 764.646 218.664 767.717 232.882 767.957L245.078 729.925C253.86 702.855 275.008 623.653 292.227 517.639C292.419 516.451 293.518 515.621 294.716 515.73C295.93 515.844 296.839 516.872 296.801 518.077L293.051 635.782C302.385 636.864 344.15 641.056 430.326 641.056C431.6 641.056 432.627 642.08 432.627 643.343C432.627 644.607 431.6 645.627 430.326 645.627C331.491 645.627 290.762 640.112 290.363 640.057C289.2 639.897 288.346 638.886 288.38 637.724L291.132 551.462C275.122 641.047 257.338 707.051 249.469 731.32L236.755 770.952C236.453 771.9 235.561 772.54 234.559 772.54Z" fill="#BDB8FF"/>
</g>
<mask id="mask3_22_1182" style="mask-type:luminance" maskUnits="userSpaceOnUse" x="564" y="311" width="120" height="110">
<path d="M564.216 311.667H683.799V420.609H564.216V311.667Z" fill="white"/>
</mask>
<g mask="url(#mask3_22_1182)">
<path d="M626.466 772.54C625.464 772.54 624.572 771.9 624.266 770.952L611.556 731.307C602.741 704.153 581.512 624.681 564.25 518.367C564.05 517.12 564.904 515.954 566.156 515.747C567.422 515.545 568.594 516.396 568.798 517.639C586.013 623.653 607.161 702.855 615.939 729.917L628.143 767.957C642.357 767.717 667.828 764.646 675.06 763.74L675.926 722.465C675.934 722.115 676.019 721.774 676.181 721.466C683.336 707.641 676.588 636.86 657.674 527.273C642.501 439.398 622.368 344.496 612.796 315.728C612.401 314.527 613.051 313.234 614.261 312.842C615.467 312.446 616.771 313.095 617.17 314.291C626.806 343.244 647.007 438.441 662.209 526.506C673.335 590.951 690.411 701.675 680.516 723.055L679.625 765.8C679.599 766.929 678.75 767.868 677.625 768.016C676.206 768.201 642.773 772.54 626.466 772.54Z" fill="#BDB8FF"/>
</g>
<mask id="mask4_22_1182" style="mask-type:luminance" maskUnits="userSpaceOnUse" x="609" y="323" width="14" height="98">
<path d="M609.875 323.529H622.92V420.609H609.875V323.529Z" fill="white"/>
</mask>
<g mask="url(#mask4_22_1182)">
<path d="M618.98 324.899C620.347 335.396 621.285 345.894 621.948 356.422C622.275 361.687 622.508 366.957 622.649 372.232C622.789 377.502 622.844 382.776 622.746 388.046C622.666 393.32 622.479 398.594 622.08 403.856C621.689 409.117 621.188 414.366 620.355 419.581C619.54 424.788 618.495 429.97 617.018 435.038C615.54 440.097 613.595 445.055 610.839 449.563C613.514 445.009 615.366 440.034 616.75 434.962C618.13 429.885 619.081 424.704 619.803 419.501C620.542 414.295 620.954 409.05 621.251 403.805C621.549 398.552 621.642 393.299 621.638 388.042C621.638 382.784 621.494 377.527 621.26 372.278C621.026 367.025 620.704 361.78 620.279 356.54C619.438 346.067 618.317 335.59 616.78 325.219L616.776 325.202C616.686 324.599 617.107 324.039 617.714 323.951C618.321 323.862 618.886 324.279 618.975 324.882C618.98 324.886 618.98 324.894 618.98 324.899Z" fill="#BDB8FF"/>
</g>
<path d="M246.042 317.295C245.804 317.295 245.558 317.257 245.316 317.181C244.11 316.781 243.456 315.492 243.851 314.291C251.554 291.164 272.43 271.765 304.241 258.204C328.064 248.043 349.284 244.732 350.18 244.593C351.425 244.404 352.61 245.255 352.805 246.506C352.996 247.753 352.134 248.92 350.877 249.109C350.665 249.143 329.262 252.492 305.965 262.442C284.69 271.529 257.406 288.148 248.229 315.728C247.906 316.684 247.006 317.295 246.042 317.295Z" fill="#BDB8FF"/>
<path d="M614.984 317.295C614.02 317.295 613.119 316.684 612.797 315.728C603.62 288.148 576.416 271.525 555.217 262.438C531.997 252.492 510.675 249.143 510.467 249.109C509.206 248.92 508.344 247.753 508.539 246.506C508.734 245.255 509.919 244.404 511.168 244.593C512.055 244.732 533.195 248.043 556.946 258.204C588.651 271.769 609.471 291.164 617.171 314.291C617.565 315.492 616.916 316.781 615.705 317.181C615.463 317.257 615.221 317.295 614.984 317.295Z" fill="#BDB8FF"/>
<mask id="mask5_22_1182" style="mask-type:luminance" maskUnits="userSpaceOnUse" x="275" y="273" width="21" height="148">
<path d="M275.042 273.922H295.697V420.609H275.042V273.922Z" fill="white"/>
</mask>
<g mask="url(#mask5_22_1182)">
<path d="M294.466 518.153C294.457 518.153 294.449 518.153 294.436 518.153C293.824 518.14 293.34 517.634 293.357 517.024C293.366 516.674 294.181 481.532 290.992 438.576C290.104 426.688 289.391 412.471 288.635 397.415C286.414 353.144 283.896 302.968 275.802 276.302C275.624 275.72 275.955 275.105 276.545 274.928C277.135 274.747 277.755 275.08 277.934 275.666C286.104 302.588 288.631 352.908 290.86 397.305C291.616 412.348 292.325 426.558 293.204 438.412C296.406 481.482 295.582 516.729 295.578 517.083C295.565 517.681 295.069 518.153 294.466 518.153Z" fill="#BDB8FF"/>
</g>
<path d="M281.832 317.223L283.628 317.021C283.785 316.216 283.879 315.391 283.862 314.519C283.042 315.365 282.401 316.271 281.832 317.223Z" fill="#BDB8FF"/>
<path d="M283.959 314.51C284.151 315.361 284.444 316.145 284.758 316.903L286.55 316.705C285.807 315.892 284.957 315.151 283.959 314.51Z" fill="#BDB8FF"/>
<path d="M279.059 326.196C280.702 324.595 281.683 322.729 282.511 320.795C282.987 319.586 283.382 318.335 283.628 317.021L281.832 317.223C281.301 318.108 280.855 319.035 280.456 319.97C279.675 321.924 279.084 323.925 279.059 326.196Z" fill="#BDB8FF"/>
<path d="M291.111 325.05C290.69 322.788 289.633 320.901 288.478 319.123C287.883 318.28 287.255 317.467 286.55 316.705L284.758 316.903C285.267 318.133 285.917 319.27 286.635 320.37C287.854 322.106 289.217 323.761 291.111 325.05Z" fill="#BDB8FF"/>
<path d="M282.724 325.855L284.524 325.686C284.681 324.882 284.809 324.056 284.796 323.184C283.972 324.018 283.297 324.915 282.724 325.855Z" fill="#BDB8FF"/>
<path d="M284.894 323.176C285.08 324.027 285.344 324.818 285.649 325.577L287.45 325.404C286.711 324.587 285.887 323.829 284.894 323.176Z" fill="#BDB8FF"/>
<path d="M279.836 334.807C281.496 333.218 282.507 331.369 283.361 329.444C283.845 328.235 284.257 326.992 284.524 325.686L282.724 325.855C282.18 326.735 281.726 327.654 281.309 328.585C280.511 330.531 279.883 332.532 279.836 334.807Z" fill="#BDB8FF"/>
<path d="M291.901 333.796C291.506 331.533 290.482 329.638 289.344 327.852C288.762 327.001 288.147 326.179 287.45 325.404L285.65 325.577C286.151 326.815 286.783 327.961 287.484 329.069C288.686 330.821 290.019 332.494 291.901 333.796Z" fill="#BDB8FF"/>
<path d="M283.505 334.507L285.306 334.356C285.476 333.551 285.603 332.73 285.616 331.858C284.775 332.683 284.087 333.577 283.505 334.507Z" fill="#BDB8FF"/>
<path d="M285.713 331.849C285.879 332.704 286.13 333.496 286.435 334.263L288.236 334.112C287.501 333.282 286.69 332.515 285.713 331.849Z" fill="#BDB8FF"/>
<path d="M280.524 343.434C282.197 341.863 283.237 340.018 284.104 338.105C284.605 336.9 285.03 335.662 285.306 334.356L283.501 334.507C282.953 335.384 282.49 336.294 282.061 337.225C281.246 339.162 280.592 341.163 280.524 343.434Z" fill="#BDB8FF"/>
<path d="M292.601 342.541C292.219 340.275 291.225 338.375 290.104 336.576C289.531 335.721 288.924 334.887 288.24 334.112L286.435 334.263C286.919 335.502 287.539 336.66 288.236 337.777C289.416 339.537 290.724 341.218 292.601 342.541Z" fill="#BDB8FF"/>
<path d="M284.197 343.173L286.002 343.038C286.172 342.233 286.308 341.416 286.333 340.54C285.48 341.361 284.788 342.246 284.197 343.173Z" fill="#BDB8FF"/>
<path d="M286.431 340.536C286.584 341.391 286.834 342.187 287.127 342.958L288.928 342.823C288.206 341.985 287.399 341.214 286.431 340.536Z" fill="#BDB8FF"/>
<path d="M281.14 352.083C282.826 350.524 283.879 348.683 284.762 346.775C285.272 345.574 285.713 344.34 285.998 343.038L284.193 343.173C283.637 344.045 283.165 344.951 282.732 345.877C281.896 347.811 281.22 349.808 281.14 352.083Z" fill="#BDB8FF"/>
<path d="M293.226 351.274C292.856 349.012 291.888 347.107 290.775 345.296C290.21 344.441 289.612 343.603 288.932 342.823L287.127 342.958C287.603 344.201 288.215 345.363 288.898 346.48C290.062 348.253 291.361 349.943 293.226 351.274Z" fill="#BDB8FF"/>
<path d="M284.817 351.847L286.622 351.729C286.805 350.924 286.945 350.103 286.97 349.235C286.112 350.044 285.412 350.924 284.817 351.847Z" fill="#BDB8FF"/>
<path d="M287.068 349.226C287.217 350.086 287.459 350.882 287.752 351.649L289.556 351.535C288.834 350.692 288.028 349.909 287.068 349.226Z" fill="#BDB8FF"/>
<path d="M281.7 360.739C283.39 359.193 284.456 357.357 285.356 355.453C285.879 354.256 286.32 353.026 286.618 351.729L284.813 351.847C284.248 352.719 283.773 353.62 283.327 354.539C282.486 356.468 281.794 358.465 281.7 360.739Z" fill="#BDB8FF"/>
<path d="M293.79 360.007C293.434 357.74 292.474 355.836 291.383 354.016C290.822 353.157 290.227 352.318 289.556 351.531L287.752 351.649C288.215 352.9 288.818 354.063 289.493 355.187C290.648 356.969 291.935 358.663 293.79 360.007Z" fill="#BDB8FF"/>
<path d="M285.378 360.525L287.183 360.419C287.365 359.619 287.514 358.797 287.548 357.925C286.682 358.73 285.981 359.606 285.378 360.525Z" fill="#BDB8FF"/>
<path d="M287.646 357.921C287.786 358.781 288.028 359.577 288.312 360.352L290.113 360.238C289.404 359.4 288.605 358.612 287.646 357.921Z" fill="#BDB8FF"/>
<path d="M282.214 369.413C283.913 367.867 284.983 366.039 285.9 364.139C286.427 362.947 286.877 361.717 287.183 360.419L285.378 360.533C284.809 361.397 284.32 362.298 283.879 363.216C283.017 365.142 282.316 367.134 282.214 369.413Z" fill="#BDB8FF"/>
<path d="M294.308 368.735C293.956 366.473 293.013 364.556 291.926 362.736C291.378 361.873 290.784 361.034 290.117 360.238L288.312 360.352C288.771 361.603 289.37 362.77 290.036 363.895C291.179 365.685 292.448 367.383 294.308 368.735Z" fill="#BDB8FF"/>
<path d="M285.887 369.215L287.696 369.118C287.883 368.318 288.036 367.492 288.07 366.625C287.204 367.425 286.499 368.297 285.887 369.215Z" fill="#BDB8FF"/>
<path d="M288.172 366.62C288.308 367.48 288.546 368.28 288.826 369.051L290.631 368.95C289.922 368.103 289.123 367.32 288.172 366.62Z" fill="#BDB8FF"/>
<path d="M282.694 378.091C284.397 376.558 285.475 374.73 286.397 372.834C286.928 371.638 287.386 370.412 287.692 369.118L285.887 369.215C285.314 370.079 284.83 370.98 284.38 371.899C283.513 373.824 282.8 375.812 282.694 378.091Z" fill="#BDB8FF"/>
<path d="M294.788 377.455C294.448 375.193 293.51 373.276 292.436 371.452C291.888 370.589 291.297 369.746 290.635 368.95L288.826 369.051C289.28 370.306 289.871 371.477 290.533 372.606C291.667 374.397 292.941 376.099 294.788 377.455Z" fill="#BDB8FF"/>
<path d="M286.367 377.906L288.172 377.813C288.372 377.013 288.52 376.196 288.563 375.328C287.688 376.12 286.979 376.996 286.367 377.906Z" fill="#BDB8FF"/>
<path d="M288.66 375.319C288.796 376.183 289.034 376.983 289.306 377.754L291.111 377.657C290.406 376.811 289.612 376.019 288.66 375.319Z" fill="#BDB8FF"/>
<path d="M283.153 386.782C284.855 385.244 285.934 383.42 286.864 381.525C287.399 380.337 287.862 379.111 288.172 377.813L286.367 377.906C285.794 378.774 285.301 379.671 284.847 380.585C283.976 382.51 283.259 384.499 283.153 386.782Z" fill="#BDB8FF"/>
<path d="M295.243 386.171C294.903 383.909 293.981 381.992 292.907 380.168C292.363 379.3 291.777 378.458 291.111 377.657L289.306 377.754C289.756 379.01 290.342 380.185 291.005 381.314C292.13 383.109 293.395 384.815 295.243 386.171Z" fill="#BDB8FF"/>
<path d="M286.826 386.605L288.631 386.517C288.826 385.716 288.979 384.899 289.021 384.027C288.151 384.819 287.437 385.695 286.826 386.605Z" fill="#BDB8FF"/>
<path d="M289.119 384.023C289.251 384.882 289.489 385.682 289.765 386.458L291.569 386.369C290.864 385.518 290.07 384.722 289.119 384.023Z" fill="#BDB8FF"/>
<path d="M283.59 395.477C285.293 393.943 286.38 392.119 287.314 390.228C287.854 389.036 288.312 387.81 288.631 386.517L286.826 386.605C286.248 387.464 285.756 388.366 285.301 389.284C284.427 391.201 283.7 393.198 283.59 395.477Z" fill="#BDB8FF"/>
<path d="M295.689 394.879C295.345 392.616 294.427 390.704 293.361 388.876C292.814 388.012 292.232 387.165 291.569 386.369L289.765 386.458C290.211 387.713 290.797 388.888 291.451 390.017C292.576 391.812 293.841 393.522 295.689 394.879Z" fill="#BDB8FF"/>
<path d="M287.268 395.304L289.072 395.22C289.272 394.419 289.421 393.598 289.467 392.73C288.588 393.526 287.879 394.39 287.268 395.304Z" fill="#BDB8FF"/>
<path d="M289.565 392.726C289.692 393.585 289.926 394.386 290.206 395.161L292.007 395.068C291.306 394.226 290.516 393.429 289.565 392.726Z" fill="#BDB8FF"/>
<path d="M284.032 404.184C285.73 402.647 286.817 400.823 287.756 398.927C288.291 397.739 288.758 396.509 289.072 395.22L287.263 395.304C286.686 396.168 286.197 397.065 285.739 397.983C284.864 399.904 284.142 401.897 284.032 404.184Z" fill="#BDB8FF"/>
<path d="M296.126 403.578C295.786 401.32 294.86 399.411 293.799 397.583C293.251 396.715 292.673 395.869 292.011 395.068L290.206 395.161C290.652 396.416 291.234 397.592 291.892 398.721C293.009 400.515 294.279 402.221 296.126 403.578Z" fill="#BDB8FF"/>
<path d="M287.709 404.012L289.514 403.919C289.709 403.118 289.862 402.305 289.905 401.438C289.026 402.225 288.321 403.097 287.709 404.012Z" fill="#BDB8FF"/>
<path d="M290.002 401.425C290.134 402.289 290.368 403.089 290.648 403.864L292.448 403.771C291.748 402.925 290.954 402.129 290.002 401.425Z" fill="#BDB8FF"/>
<path d="M284.482 412.9C286.176 411.354 287.259 409.526 288.193 407.63C288.733 406.442 289.195 405.216 289.514 403.919L287.705 404.012C287.127 404.875 286.635 405.772 286.185 406.687C285.301 408.612 284.584 410.609 284.482 412.9Z" fill="#BDB8FF"/>
<path d="M296.572 412.268C296.228 410.019 295.306 408.106 294.236 406.282C293.692 405.414 293.111 404.572 292.448 403.771L290.648 403.864C291.089 405.119 291.675 406.295 292.334 407.424C293.455 409.218 294.72 410.92 296.572 412.268Z" fill="#BDB8FF"/>
<path d="M288.155 412.719L289.96 412.622C290.155 411.826 290.304 411.009 290.346 410.137C289.476 410.929 288.767 411.805 288.155 412.719Z" fill="#BDB8FF"/>
<path d="M290.444 410.132C290.58 410.992 290.813 411.788 291.094 412.567L292.898 412.475C292.193 411.624 291.395 410.832 290.444 410.132Z" fill="#BDB8FF"/>
<mask id="mask6_22_1182" style="mask-type:luminance" maskUnits="userSpaceOnUse" x="284" y="411" width="7" height="10">
<path d="M284.826 411.961H290.261V420.609H284.826V411.961Z" fill="white"/>
</mask>
<g mask="url(#mask6_22_1182)">
<path d="M284.957 421.625C286.647 420.074 287.722 418.238 288.648 416.342C289.187 415.15 289.645 413.915 289.96 412.622L288.155 412.719C287.577 413.578 287.089 414.48 286.635 415.402C285.76 417.328 285.055 419.333 284.957 421.625Z" fill="#BDB8FF"/>
</g>
<mask id="mask7_22_1182" style="mask-type:luminance" maskUnits="userSpaceOnUse" x="290" y="411" width="8" height="10">
<path d="M290.261 411.961H297.871V420.609H290.261V411.961Z" fill="white"/>
</mask>
<g mask="url(#mask7_22_1182)">
<path d="M297.043 420.951C296.695 418.697 295.756 416.793 294.69 414.977C294.143 414.113 293.561 413.271 292.898 412.475L291.094 412.567C291.539 413.819 292.13 414.99 292.788 416.119C293.913 417.909 295.191 419.602 297.043 420.951Z" fill="#BDB8FF"/>
</g>
<mask id="mask8_22_1182" style="mask-type:luminance" maskUnits="userSpaceOnUse" x="288" y="418" width="4" height="3">
<path d="M288.087 418.431H291.349V420.609H288.087V418.431Z" fill="white"/>
</mask>
<g mask="url(#mask8_22_1182)">
<path d="M288.631 421.431L290.436 421.33C290.627 420.529 290.775 419.708 290.814 418.84C289.947 419.636 289.242 420.508 288.631 421.431Z" fill="#BDB8FF"/>
</g>
<mask id="mask9_22_1182" style="mask-type:luminance" maskUnits="userSpaceOnUse" x="290" y="418" width="4" height="3">
<path d="M290.261 418.431H293.523V420.609H290.261V418.431Z" fill="white"/>
</mask>
<g mask="url(#mask9_22_1182)">
<path d="M290.911 418.836C291.047 419.695 291.289 420.491 291.569 421.262L293.374 421.161C292.665 420.319 291.866 419.531 290.911 418.836Z" fill="#BDB8FF"/>
</g>
<mask id="mask10_22_1182" style="mask-type:luminance" maskUnits="userSpaceOnUse" x="564" y="273" width="21" height="148">
<path d="M564.216 273.922H584.871V420.609H564.216V273.922Z" fill="white"/>
</mask>
<g mask="url(#mask10_22_1182)">
<path d="M566.105 518.153C565.502 518.153 565.01 517.681 564.997 517.083C564.984 516.729 564.165 481.482 567.367 438.412C568.246 426.558 568.959 412.348 569.715 397.305C571.944 352.912 574.467 302.588 582.642 275.666C582.82 275.08 583.436 274.747 584.026 274.928C584.616 275.105 584.952 275.72 584.773 276.302C576.679 302.968 574.161 353.144 571.936 397.415C571.18 412.475 570.467 426.688 569.583 438.576C566.394 481.532 567.21 516.674 567.222 517.024C567.235 517.634 566.751 518.14 566.135 518.153C566.122 518.153 566.114 518.153 566.105 518.153Z" fill="#BDB8FF"/>
</g>
<path d="M578.743 317.223L576.943 317.021C576.79 316.216 576.696 315.391 576.713 314.519C577.533 315.365 578.174 316.271 578.743 317.223Z" fill="#BDB8FF"/>
<path d="M576.616 314.51C576.42 315.361 576.132 316.145 575.822 316.903L574.025 316.705C574.764 315.892 575.618 315.151 576.616 314.51Z" fill="#BDB8FF"/>
<path d="M581.512 326.196C579.869 324.595 578.892 322.729 578.064 320.795C577.588 319.586 577.189 318.335 576.947 317.021L578.743 317.223C579.274 318.108 579.72 319.035 580.119 319.97C580.905 321.924 581.491 323.925 581.512 326.196Z" fill="#BDB8FF"/>
<path d="M569.465 325.05C569.885 322.788 570.942 320.901 572.097 319.123C572.692 318.28 573.316 317.467 574.021 316.705L575.822 316.903C575.304 318.133 574.658 319.27 573.94 320.37C572.717 322.106 571.359 323.761 569.465 325.05Z" fill="#BDB8FF"/>
<path d="M577.847 325.855L576.047 325.686C575.89 324.882 575.766 324.056 575.779 323.184C576.599 324.018 577.274 324.915 577.847 325.855Z" fill="#BDB8FF"/>
<path d="M575.673 323.176C575.495 324.027 575.232 324.818 574.926 325.577L573.125 325.404C573.86 324.587 574.688 323.829 575.673 323.176Z" fill="#BDB8FF"/>
<path d="M580.739 334.807C579.079 333.218 578.064 331.369 577.215 329.444C576.726 328.235 576.315 326.992 576.051 325.686L577.852 325.855C578.395 326.735 578.85 327.654 579.266 328.585C580.064 330.531 580.689 332.532 580.739 334.807Z" fill="#BDB8FF"/>
<path d="M568.671 333.796C569.07 331.533 570.093 329.638 571.231 327.852C571.813 327.001 572.429 326.179 573.121 325.404L574.926 325.577C574.425 326.815 573.792 327.961 573.087 329.069C571.89 330.821 570.556 332.494 568.671 333.796Z" fill="#BDB8FF"/>
<path d="M577.07 334.507L575.27 334.356C575.1 333.551 574.968 332.73 574.956 331.858C575.796 332.683 576.489 333.577 577.07 334.507Z" fill="#BDB8FF"/>
<path d="M574.858 331.849C574.692 332.704 574.438 333.496 574.14 334.263L572.335 334.112C573.07 333.282 573.881 332.515 574.858 331.849Z" fill="#BDB8FF"/>
<path d="M580.051 343.434C578.374 341.863 577.342 340.018 576.472 338.105C575.97 336.9 575.546 335.662 575.27 334.356L577.07 334.507C577.618 335.384 578.085 336.294 578.51 337.225C579.329 339.162 579.983 341.163 580.051 343.434Z" fill="#BDB8FF"/>
<path d="M567.974 342.541C568.356 340.275 569.346 338.375 570.471 336.576C571.044 335.721 571.652 334.887 572.335 334.112L574.136 334.263C573.652 335.502 573.032 336.66 572.34 337.777C571.155 339.537 569.847 341.218 567.974 342.541Z" fill="#BDB8FF"/>
<path d="M576.378 343.173L574.573 343.038C574.399 342.233 574.263 341.416 574.242 340.54C575.092 341.361 575.788 342.246 576.378 343.173Z" fill="#BDB8FF"/>
<path d="M574.14 340.536C573.992 341.391 573.741 342.187 573.448 342.958L571.647 342.823C572.365 341.985 573.176 341.214 574.14 340.536Z" fill="#BDB8FF"/>
<path d="M579.431 352.083C577.75 350.524 576.697 348.683 575.809 346.775C575.299 345.574 574.862 344.34 574.573 343.038L576.378 343.173C576.939 344.045 577.41 344.951 577.843 345.877C578.68 347.811 579.351 349.808 579.431 352.083Z" fill="#BDB8FF"/>
<path d="M567.35 351.274C567.719 349.012 568.688 347.107 569.8 345.296C570.365 344.441 570.959 343.603 571.643 342.823L573.448 342.958C572.972 344.201 572.361 345.363 571.677 346.48C570.514 348.253 569.218 349.943 567.35 351.274Z" fill="#BDB8FF"/>
<path d="M575.758 351.847L573.953 351.729C573.771 350.924 573.631 350.103 573.601 349.235C574.463 350.044 575.159 350.924 575.758 351.847Z" fill="#BDB8FF"/>
<path d="M573.503 349.226C573.359 350.086 573.113 350.882 572.828 351.649L571.023 351.535C571.741 350.692 572.543 349.909 573.503 349.226Z" fill="#BDB8FF"/>
<path d="M578.871 360.739C577.181 359.193 576.119 357.357 575.219 355.453C574.696 354.256 574.255 353.026 573.953 351.729L575.758 351.847C576.323 352.719 576.803 353.62 577.24 354.539C578.089 356.468 578.781 358.465 578.871 360.739Z" fill="#BDB8FF"/>
<path d="M566.785 360.007C567.142 357.74 568.097 355.836 569.193 354.016C569.754 353.157 570.344 352.318 571.015 351.531L572.82 351.649C572.361 352.9 571.758 354.063 571.083 355.187C569.932 356.969 568.641 358.663 566.785 360.007Z" fill="#BDB8FF"/>
<path d="M575.193 360.525L573.393 360.419C573.202 359.619 573.066 358.797 573.028 357.925C573.894 358.73 574.595 359.606 575.193 360.525Z" fill="#BDB8FF"/>
<path d="M572.93 357.921C572.79 358.781 572.548 359.577 572.263 360.352L570.458 360.238C571.172 359.4 571.975 358.612 572.93 357.921Z" fill="#BDB8FF"/>
<path d="M578.357 369.413C576.663 367.867 575.588 366.039 574.675 364.139C574.149 362.947 573.699 361.717 573.393 360.419L575.198 360.533C575.767 361.397 576.255 362.298 576.697 363.216C577.554 365.142 578.259 367.134 578.357 369.413Z" fill="#BDB8FF"/>
<path d="M566.267 368.735C566.615 366.473 567.562 364.556 568.641 362.736C569.197 361.873 569.787 361.034 570.458 360.238L572.263 360.352C571.805 361.603 571.206 362.77 570.539 363.895C569.397 365.685 568.119 367.383 566.267 368.735Z" fill="#BDB8FF"/>
<path d="M574.684 369.215L572.879 369.118C572.688 368.318 572.543 367.492 572.501 366.625C573.367 367.425 574.076 368.297 574.684 369.215Z" fill="#BDB8FF"/>
<path d="M572.403 366.62C572.267 367.48 572.025 368.28 571.749 369.051L569.945 368.95C570.654 368.103 571.452 367.32 572.403 366.62Z" fill="#BDB8FF"/>
<path d="M577.877 378.091C576.178 376.558 575.096 374.73 574.178 372.834C573.648 371.638 573.189 370.412 572.879 369.118L574.688 369.215C575.257 370.079 575.745 370.98 576.191 371.899C577.062 373.824 577.775 375.812 577.877 378.091Z" fill="#BDB8FF"/>
<path d="M565.787 377.455C566.131 375.193 567.061 373.276 568.14 371.452C568.688 370.589 569.278 369.746 569.94 368.95L571.745 369.051C571.291 370.306 570.705 371.477 570.042 372.606C568.908 374.397 567.634 376.099 565.787 377.455Z" fill="#BDB8FF"/>
<path d="M574.2 377.906L572.395 377.813C572.204 377.013 572.051 376.196 572.013 375.328C572.887 376.12 573.592 376.996 574.2 377.906Z" fill="#BDB8FF"/>
<path d="M571.911 375.319C571.783 376.183 571.545 376.983 571.265 377.754L569.465 377.657C570.17 376.811 570.959 376.019 571.911 375.319Z" fill="#BDB8FF"/>
<path d="M577.423 386.782C575.72 385.244 574.637 383.42 573.707 381.525C573.172 380.337 572.713 379.111 572.395 377.813L574.208 377.906C574.781 378.774 575.27 379.671 575.72 380.585C576.595 382.51 577.317 384.499 577.423 386.782Z" fill="#BDB8FF"/>
<path d="M565.333 386.171C565.668 383.909 566.594 381.992 567.668 380.168C568.212 379.3 568.798 378.458 569.46 377.657L571.265 377.754C570.815 379.01 570.229 380.185 569.571 381.314C568.441 383.109 567.18 384.815 565.333 386.171Z" fill="#BDB8FF"/>
<path d="M573.749 386.605L571.945 386.517C571.749 385.716 571.596 384.899 571.554 384.027C572.425 384.819 573.134 385.695 573.749 386.605Z" fill="#BDB8FF"/>
<path d="M571.456 384.023C571.32 384.882 571.087 385.682 570.811 386.458L569.006 386.369C569.711 385.518 570.505 384.722 571.456 384.023Z" fill="#BDB8FF"/>
<path d="M576.981 395.477C575.278 393.943 574.191 392.119 573.261 390.228C572.722 389.036 572.259 387.81 571.945 386.517L573.749 386.605C574.327 387.464 574.815 388.366 575.274 389.284C576.144 391.201 576.875 393.198 576.981 395.477Z" fill="#BDB8FF"/>
<path d="M564.887 394.879C565.227 392.616 566.148 390.704 567.214 388.876C567.762 388.012 568.344 387.165 569.002 386.369L570.811 386.458C570.365 387.713 569.779 388.888 569.125 390.017C568 391.812 566.734 393.522 564.887 394.879Z" fill="#BDB8FF"/>
<path d="M573.308 395.304L571.503 395.22C571.308 394.419 571.151 393.598 571.108 392.73C571.983 393.526 572.692 394.39 573.308 395.304Z" fill="#BDB8FF"/>
<path d="M571.006 392.726C570.875 393.585 570.645 394.386 570.369 395.161L568.564 395.068C569.269 394.226 570.059 393.429 571.006 392.726Z" fill="#BDB8FF"/>
<path d="M576.544 404.184C574.841 402.647 573.754 400.823 572.819 398.927C572.28 397.739 571.817 396.509 571.503 395.22L573.308 395.304C573.885 396.168 574.378 397.065 574.836 397.983C575.711 399.904 576.433 401.897 576.544 404.184Z" fill="#BDB8FF"/>
<path d="M564.449 403.578C564.789 401.32 565.711 399.411 566.777 397.583C567.32 396.715 567.902 395.869 568.564 395.068L570.369 395.161C569.923 396.416 569.337 397.592 568.683 398.721C567.562 400.515 566.297 402.221 564.449 403.578Z" fill="#BDB8FF"/>
<path d="M572.866 404.012L571.061 403.919C570.866 403.118 570.713 402.305 570.671 401.438C571.545 402.225 572.25 403.097 572.866 404.012Z" fill="#BDB8FF"/>
<path d="M570.569 401.425C570.441 402.289 570.204 403.089 569.932 403.864L568.127 403.771C568.828 402.925 569.622 402.129 570.569 401.425Z" fill="#BDB8FF"/>
<path d="M576.093 412.9C574.391 411.354 573.316 409.526 572.382 407.63C571.843 406.442 571.38 405.216 571.061 403.919L572.866 404.012C573.448 404.875 573.94 405.772 574.391 406.687C575.27 408.612 575.992 410.609 576.093 412.9Z" fill="#BDB8FF"/>
<path d="M564.004 412.268C564.343 410.019 565.269 408.106 566.335 406.282C566.879 405.414 567.465 404.572 568.127 403.771L569.932 403.864C569.482 405.119 568.9 406.295 568.242 407.424C567.121 409.218 565.851 410.92 564.004 412.268Z" fill="#BDB8FF"/>
<path d="M572.416 412.719L570.611 412.622C570.42 411.826 570.267 411.009 570.225 410.137C571.1 410.929 571.805 411.805 572.416 412.719Z" fill="#BDB8FF"/>
<path d="M570.127 410.132C569.995 410.992 569.758 411.788 569.482 412.567L567.677 412.475C568.382 411.624 569.176 410.832 570.127 410.132Z" fill="#BDB8FF"/>
<mask id="mask11_22_1182" style="mask-type:luminance" maskUnits="userSpaceOnUse" x="569" y="411" width="8" height="10">
<path d="M569.652 411.961H576.174V420.609H569.652V411.961Z" fill="white"/>
</mask>
<g mask="url(#mask11_22_1182)">
<path d="M575.618 421.625C573.928 420.074 572.853 418.238 571.928 416.342C571.388 415.15 570.93 413.915 570.615 412.622L572.42 412.719C572.994 413.578 573.486 414.48 573.936 415.402C574.811 417.328 575.52 419.333 575.618 421.625Z" fill="#BDB8FF"/>
</g>
<mask id="mask12_22_1182" style="mask-type:luminance" maskUnits="userSpaceOnUse" x="563" y="411" width="7" height="10">
<path d="M563.129 411.961H569.652V420.609H563.129V411.961Z" fill="white"/>
</mask>
<g mask="url(#mask12_22_1182)">
<path d="M563.528 420.951C563.876 418.697 564.815 416.793 565.881 414.977C566.428 414.113 567.01 413.271 567.673 412.475L569.478 412.567C569.032 413.819 568.446 414.99 567.783 416.119C566.662 417.909 565.384 419.602 563.528 420.951Z" fill="#BDB8FF"/>
</g>
<mask id="mask13_22_1182" style="mask-type:luminance" maskUnits="userSpaceOnUse" x="569" y="418" width="4" height="3">
<path d="M569.652 418.431H572.913V420.609H569.652V418.431Z" fill="white"/>
</mask>
<g mask="url(#mask13_22_1182)">
<path d="M571.945 421.431L570.136 421.33C569.949 420.529 569.8 419.708 569.762 418.84C570.628 419.636 571.333 420.508 571.945 421.431Z" fill="#BDB8FF"/>
</g>
<mask id="mask14_22_1182" style="mask-type:luminance" maskUnits="userSpaceOnUse" x="566" y="418" width="5" height="3">
<path d="M566.39 418.431H570.739V420.609H566.39V418.431Z" fill="white"/>
</mask>
<g mask="url(#mask14_22_1182)">
<path d="M569.664 418.836C569.524 419.695 569.286 420.491 569.006 421.262L567.201 421.161C567.91 420.319 568.709 419.531 569.664 418.836Z" fill="#BDB8FF"/>
</g>
<path d="M350.524 249.139C349.968 249.139 349.416 248.941 348.97 248.536C339.751 240.166 346.397 218.104 348.656 211.545C351.943 201.991 359.455 185.735 366.967 184.728C383.274 179.828 429.043 180.397 430.993 180.427C432.267 180.443 433.281 181.48 433.264 182.744C433.243 184.007 432.186 185.023 430.933 184.997C430.457 184.989 383.541 184.399 368.122 189.159C367.961 189.206 367.799 189.239 367.63 189.252C364.92 189.48 358.16 198.073 353.013 213.02C347.764 228.29 347.395 240.911 352.083 245.17C353.017 246.021 353.085 247.466 352.227 248.397C351.769 248.886 351.149 249.139 350.524 249.139Z" fill="#BDB8FF"/>
<path d="M427.341 196.734C398.757 196.734 368.377 186.779 368.058 186.67C367.477 186.476 367.162 185.852 367.358 185.275C367.553 184.694 368.186 184.386 368.763 184.576C369.09 184.686 401.551 195.314 430.632 194.48C431.239 194.463 431.761 194.939 431.774 195.55C431.795 196.161 431.315 196.666 430.7 196.683C429.583 196.713 428.462 196.734 427.341 196.734Z" fill="#BDB8FF"/>
<path d="M430.734 264.578C372.53 264.578 349.896 247.782 348.962 247.07C348.473 246.695 348.384 246 348.762 245.52C349.136 245.04 349.832 244.951 350.321 245.322C350.541 245.491 373.405 262.371 430.734 262.371C431.349 262.371 431.846 262.863 431.846 263.474C431.846 264.081 431.349 264.578 430.734 264.578Z" fill="#BDB8FF"/>
<path d="M430.857 264.835C430.496 264.835 430.207 264.548 430.207 264.19V195.891C430.207 195.533 430.496 195.247 430.857 195.247C431.218 195.247 431.502 195.533 431.502 195.891V264.19C431.502 264.548 431.218 264.835 430.857 264.835Z" fill="#BDB8FF"/>
<path d="M424.538 264.435C424.432 264.435 424.321 264.409 424.219 264.355C423.68 264.047 423.124 263.735 423.54 229.491C423.744 212.754 424.105 195.883 424.109 195.71C424.117 195.36 424.381 195.078 424.767 195.087C425.124 195.091 425.408 195.381 425.4 195.74C424.844 221.63 424.304 260.825 425.064 263.424C425.209 263.622 425.23 263.891 425.103 264.115C424.979 264.321 424.767 264.435 424.538 264.435Z" fill="#BDB8FF"/>
<path d="M418.516 263.976C418.406 263.976 418.295 263.946 418.189 263.887C417.544 263.508 416.346 262.809 417.221 228.863C417.65 212.261 418.389 195.626 418.393 195.461C418.406 195.108 418.711 194.83 419.068 194.851C419.421 194.863 419.697 195.162 419.684 195.516C418.584 220.232 417.412 260.252 418.932 262.842C419.17 263.04 419.238 263.382 419.077 263.66C418.953 263.862 418.737 263.976 418.516 263.976Z" fill="#BDB8FF"/>
<path d="M412.77 263.453C412.656 263.453 412.533 263.42 412.427 263.352C411.654 262.889 409.845 261.789 411.225 228.147C411.9 211.697 413.034 195.31 413.047 195.141C413.072 194.792 413.378 194.522 413.734 194.543C414.091 194.573 414.359 194.876 414.333 195.23C412.613 220.021 410.762 260.138 413.119 262.269C413.424 262.455 413.509 262.847 413.323 263.146C413.204 263.339 412.991 263.453 412.77 263.453Z" fill="#BDB8FF"/>
<path d="M407.254 262.855C407.14 262.855 407.017 262.821 406.91 262.754C406.01 262.185 403.607 260.673 405.543 227.347C406.486 211.052 408.036 194.91 408.049 194.75C408.087 194.396 408.405 194.143 408.753 194.172C409.106 194.206 409.369 194.522 409.335 194.872C404.842 241.501 405.887 260.593 407.607 261.671C407.904 261.861 407.993 262.257 407.802 262.56C407.679 262.75 407.471 262.855 407.254 262.855Z" fill="#BDB8FF"/>
<path d="M401.976 262.189C401.849 262.189 401.73 262.156 401.615 262.08C400.63 261.435 397.619 259.46 400.15 226.462C401.386 210.319 403.365 194.446 403.386 194.29C403.433 193.937 403.743 193.688 404.108 193.734C404.46 193.776 404.715 194.097 404.668 194.446C404.647 194.611 402.672 210.45 401.437 226.563C399.211 255.66 401.322 260.353 402.333 261.014C402.63 261.208 402.715 261.604 402.511 261.903C402.392 262.088 402.18 262.189 401.976 262.189Z" fill="#BDB8FF"/>
<path d="M396.893 261.452C396.765 261.452 396.642 261.414 396.527 261.343C389.436 256.464 398.035 200.167 399.037 193.76C399.092 193.41 399.419 193.17 399.776 193.225C400.129 193.284 400.371 193.604 400.315 193.958C396.421 218.787 392.396 256.94 397.262 260.285C397.555 260.492 397.632 260.888 397.423 261.178C397.3 261.36 397.097 261.452 396.893 261.452Z" fill="#BDB8FF"/>
<path d="M391.996 260.648C391.865 260.648 391.733 260.605 391.618 260.521C386.314 256.696 389.215 232.389 390.175 224.406C392.056 208.609 394.956 193.313 394.986 193.161C395.05 192.816 395.389 192.588 395.742 192.652C396.09 192.719 396.319 193.056 396.256 193.401C393.045 210.248 386.094 254.952 392.379 259.485C392.667 259.696 392.731 260.096 392.523 260.382C392.391 260.555 392.196 260.648 391.996 260.648Z" fill="#BDB8FF"/>
<path d="M387.266 259.763C387.134 259.763 386.994 259.721 386.875 259.628C382.955 256.654 382.51 244.408 385.55 223.235C387.797 207.623 391.177 192.647 391.207 192.5C391.287 192.159 391.631 191.936 391.984 192.016C392.328 192.091 392.548 192.437 392.472 192.782C388.727 209.266 380.569 253.233 387.661 258.613C387.945 258.828 388 259.232 387.78 259.514C387.656 259.674 387.465 259.763 387.266 259.763Z" fill="#BDB8FF"/>
<path d="M382.688 258.802C382.543 258.802 382.399 258.756 382.28 258.659C372.186 250.567 387.045 194.168 387.682 191.775C387.775 191.43 388.123 191.228 388.472 191.316C388.816 191.409 389.019 191.759 388.93 192.1C388.896 192.247 385.028 206.831 382.429 222.191C378.114 247.61 380.407 255.512 383.095 257.665C383.371 257.884 383.414 258.289 383.193 258.567C383.061 258.718 382.875 258.802 382.688 258.802Z" fill="#BDB8FF"/>
<path d="M378.242 257.762C378.093 257.762 377.944 257.711 377.826 257.61C373.184 253.667 372.891 241.223 376.959 220.607C379.966 205.403 384.34 191.127 384.382 190.983C384.488 190.646 384.845 190.457 385.189 190.558C385.529 190.659 385.724 191.021 385.618 191.358C385.576 191.502 381.219 205.719 378.229 220.864C374.314 240.701 374.462 253.069 378.662 256.633C378.934 256.865 378.968 257.265 378.739 257.534C378.607 257.682 378.424 257.762 378.242 257.762Z" fill="#BDB8FF"/>
<path d="M373.931 256.637C373.774 256.637 373.621 256.582 373.498 256.469C361.799 245.958 380.484 192.407 381.282 190.133C381.401 189.8 381.766 189.619 382.106 189.737C382.442 189.854 382.62 190.221 382.501 190.554C382.306 191.101 363.298 245.571 374.365 255.521C374.628 255.757 374.649 256.165 374.411 256.422C374.28 256.561 374.106 256.637 373.931 256.637Z" fill="#BDB8FF"/>
<path d="M369.736 255.428C369.579 255.428 369.417 255.369 369.29 255.247C356.903 243.435 377.469 191.426 378.352 189.214C378.48 188.886 378.857 188.725 379.189 188.86C379.52 188.987 379.686 189.357 379.55 189.686C379.499 189.821 374.165 203.251 370.386 217.919C365.438 237.141 365.375 249.728 370.186 254.329C370.445 254.573 370.449 254.977 370.203 255.23C370.08 255.365 369.91 255.428 369.736 255.428Z" fill="#BDB8FF"/>
<path d="M365.668 254.139C365.498 254.139 365.332 254.076 365.205 253.945C359.701 248.372 359.791 235.587 365.472 215.943C369.66 201.448 375.499 188.372 375.558 188.245C375.702 187.921 376.08 187.773 376.412 187.917C376.734 188.06 376.883 188.439 376.739 188.763C376.505 189.282 353.739 240.49 366.126 253.052C366.381 253.301 366.377 253.709 366.118 253.954C365.995 254.08 365.829 254.139 365.668 254.139Z" fill="#BDB8FF"/>
<path d="M361.71 252.77C361.54 252.77 361.366 252.698 361.243 252.559C355.514 246.401 355.748 233.493 361.939 214.208C366.508 199.961 372.806 187.327 372.865 187.196C373.027 186.885 373.413 186.754 373.736 186.91C374.05 187.07 374.182 187.453 374.025 187.773C373.774 188.266 349.242 237.756 362.185 251.692C362.432 251.957 362.41 252.357 362.151 252.597C362.028 252.715 361.871 252.77 361.71 252.77Z" fill="#BDB8FF"/>
<path d="M357.88 251.321C357.701 251.321 357.519 251.241 357.395 251.098C351.467 244.332 351.849 231.302 358.525 212.379C363.46 198.402 370.186 186.215 370.25 186.093C370.424 185.781 370.815 185.667 371.129 185.84C371.439 186.008 371.553 186.396 371.384 186.708C371.112 187.188 344.928 234.908 358.368 250.259C358.601 250.525 358.572 250.933 358.304 251.165C358.181 251.266 358.032 251.321 357.88 251.321Z" fill="#BDB8FF"/>
<path d="M354.172 249.8C353.981 249.8 353.798 249.716 353.667 249.564C347.569 242.184 348.091 229.032 355.221 210.467C360.487 196.759 367.6 185.023 367.672 184.909C367.859 184.601 368.254 184.504 368.56 184.69C368.865 184.871 368.963 185.267 368.776 185.57C368.496 186.034 340.791 231.964 354.669 248.751C354.894 249.021 354.852 249.429 354.576 249.653C354.461 249.75 354.312 249.8 354.172 249.8Z" fill="#BDB8FF"/>
<path d="M430.835 196.178C430.474 196.173 430.19 195.887 430.19 195.533L430.237 181.379C430.237 181.025 430.525 180.738 430.878 180.738C431.239 180.738 431.528 181.025 431.523 181.383L431.481 195.537C431.477 195.891 431.188 196.178 430.835 196.178Z" fill="#BDB8FF"/>
<path d="M427.663 195.9C427.659 195.9 427.655 195.9 427.646 195.9C427.294 195.891 427.009 195.6 427.018 195.242L427.341 181.863C427.349 181.513 427.634 181.24 427.986 181.24C427.99 181.24 427.994 181.24 428.003 181.24C428.355 181.248 428.64 181.539 428.631 181.893L428.309 195.276C428.3 195.622 428.011 195.9 427.663 195.9Z" fill="#BDB8FF"/>
<path d="M424.164 195.596C424.156 195.596 424.147 195.596 424.139 195.592C423.782 195.575 423.506 195.276 423.523 194.922L424.071 182.322C424.084 181.964 424.377 181.69 424.742 181.707C425.098 181.724 425.374 182.027 425.357 182.377L424.814 194.981C424.793 195.322 424.508 195.596 424.164 195.596Z" fill="#BDB8FF"/>
<path d="M420.372 195.247C420.359 195.247 420.347 195.247 420.33 195.247C419.973 195.226 419.701 194.918 419.727 194.568L420.47 182.748C420.495 182.39 420.797 182.129 421.158 182.145C421.51 182.171 421.782 182.474 421.765 182.828L421.017 194.644C420.992 194.99 420.707 195.247 420.372 195.247Z" fill="#BDB8FF"/>
<path d="M416.316 194.863C416.304 194.863 416.282 194.863 416.265 194.863C415.909 194.838 415.645 194.526 415.671 194.168L416.592 183.135C416.622 182.786 416.928 182.52 417.289 182.55C417.646 182.575 417.909 182.887 417.879 183.236L416.958 194.278C416.932 194.615 416.652 194.863 416.316 194.863Z" fill="#BDB8FF"/>
<path d="M412.045 194.438C412.023 194.438 411.998 194.438 411.977 194.434C411.62 194.4 411.365 194.088 411.399 193.73L412.478 183.481C412.516 183.127 412.834 182.874 413.187 182.908C413.544 182.946 413.798 183.262 413.76 183.611L412.681 193.865C412.652 194.193 412.371 194.438 412.045 194.438Z" fill="#BDB8FF"/>
<path d="M407.585 193.966C407.56 193.966 407.535 193.966 407.505 193.962C407.152 193.915 406.902 193.595 406.948 193.246L408.163 183.78C408.205 183.426 408.52 183.182 408.889 183.224C409.237 183.27 409.488 183.59 409.445 183.94L408.231 193.406C408.188 193.73 407.908 193.966 407.585 193.966Z" fill="#BDB8FF"/>
<path d="M402.987 193.439C402.961 193.439 402.923 193.439 402.889 193.435C402.541 193.38 402.299 193.052 402.35 192.702L403.696 184.028C403.751 183.679 404.082 183.439 404.435 183.493C404.787 183.548 405.025 183.873 404.974 184.222L403.628 192.896C403.577 193.212 403.305 193.439 402.987 193.439Z" fill="#BDB8FF"/>
<path d="M398.294 192.862C398.256 192.862 398.213 192.854 398.175 192.85C397.827 192.786 397.593 192.454 397.657 192.1L399.118 184.222C399.181 183.873 399.521 183.645 399.874 183.708C400.222 183.771 400.455 184.108 400.392 184.454L398.927 192.336C398.871 192.643 398.6 192.862 398.294 192.862Z" fill="#BDB8FF"/>
<path d="M393.534 192.218C393.487 192.218 393.44 192.214 393.393 192.205C393.045 192.129 392.824 191.788 392.901 191.438L394.472 184.357C394.549 184.012 394.893 183.793 395.241 183.868C395.593 183.94 395.81 184.285 395.733 184.631L394.166 191.716C394.098 192.016 393.831 192.218 393.534 192.218Z" fill="#BDB8FF"/>
<path d="M388.76 191.514C388.705 191.514 388.646 191.51 388.595 191.493C388.247 191.405 388.043 191.055 388.136 190.714L389.797 184.424C389.886 184.079 390.242 183.877 390.582 183.969C390.926 184.058 391.134 184.408 391.045 184.753L389.385 191.038C389.304 191.325 389.045 191.514 388.76 191.514Z" fill="#BDB8FF"/>
<path d="M384.004 190.743C383.936 190.743 383.877 190.731 383.813 190.714C383.474 190.604 383.278 190.246 383.389 189.909L385.13 184.424C385.24 184.083 385.597 183.898 385.945 184.007C386.285 184.113 386.472 184.475 386.361 184.812L384.62 190.293C384.535 190.566 384.28 190.743 384.004 190.743Z" fill="#BDB8FF"/>
<path d="M379.316 189.897C379.235 189.897 379.159 189.88 379.083 189.854C378.751 189.728 378.586 189.353 378.709 189.025L380.522 184.349C380.65 184.016 381.023 183.852 381.354 183.978C381.69 184.108 381.851 184.479 381.728 184.808L379.919 189.484C379.821 189.737 379.579 189.897 379.316 189.897Z" fill="#BDB8FF"/>
<path d="M374.734 188.974C374.641 188.974 374.547 188.953 374.458 188.911C374.135 188.759 373.999 188.376 374.148 188.06L376.008 184.193C376.165 183.873 376.547 183.734 376.87 183.885C377.189 184.037 377.324 184.424 377.176 184.74L375.32 188.608C375.21 188.839 374.976 188.974 374.734 188.974Z" fill="#BDB8FF"/>
<path d="M370.301 187.967C370.19 187.967 370.067 187.938 369.965 187.875C369.664 187.689 369.566 187.293 369.753 186.994L371.634 183.94C371.821 183.641 372.22 183.548 372.526 183.734C372.832 183.919 372.921 184.311 372.738 184.614L370.853 187.66C370.73 187.858 370.521 187.967 370.301 187.967Z" fill="#BDB8FF"/>
<path d="M510.815 249.139C510.191 249.139 509.571 248.886 509.117 248.397C508.259 247.466 508.323 246.021 509.261 245.17C513.949 240.911 513.58 228.29 508.331 213.02C503.188 198.073 496.419 189.48 493.71 189.252C493.549 189.239 493.379 189.206 493.222 189.159C477.794 184.399 430.886 184.989 430.415 184.997C429.12 185.023 428.096 184.007 428.075 182.744C428.058 181.48 429.077 180.443 430.347 180.427C432.296 180.401 478.07 179.828 494.373 184.728C501.885 185.735 509.397 201.991 512.688 211.545C514.943 218.104 521.593 240.166 512.37 248.536C511.928 248.941 511.372 249.139 510.815 249.139Z" fill="#BDB8FF"/>
<path d="M396.218 120H457.53V186.483C457.53 192.006 453.053 196.484 447.53 196.484H406.218C400.695 196.484 396.218 192.006 396.218 186.484V120Z" fill="#F1C29B"/>
<path d="M434.004 196.734C432.882 196.734 431.761 196.713 430.649 196.683C430.033 196.666 429.545 196.161 429.566 195.55C429.583 194.939 430.097 194.467 430.708 194.48C459.818 195.31 492.249 184.686 492.576 184.576C493.162 184.386 493.791 184.694 493.986 185.275C494.177 185.852 493.863 186.476 493.281 186.67C492.963 186.779 462.583 196.734 434.004 196.734Z" fill="#BDB8FF"/>
<path d="M430.606 264.578C429.995 264.578 429.494 264.081 429.494 263.474C429.494 262.863 429.995 262.371 430.606 262.371C487.943 262.371 510.803 245.491 511.028 245.322C511.512 244.951 512.213 245.04 512.582 245.52C512.956 246.004 512.867 246.695 512.382 247.07C511.444 247.782 488.81 264.578 430.606 264.578Z" fill="#BDB8FF"/>
<path d="M430.487 264.835C430.131 264.835 429.842 264.548 429.842 264.19V195.891C429.842 195.533 430.131 195.247 430.487 195.247C430.844 195.247 431.133 195.533 431.133 195.891V264.19C431.133 264.548 430.844 264.835 430.487 264.835Z" fill="#BDB8FF"/>
<path d="M436.802 264.435C436.577 264.435 436.36 264.321 436.237 264.115C436.114 263.891 436.135 263.622 436.275 263.424C437.035 260.825 436.496 221.63 435.94 195.739C435.935 195.381 436.216 195.091 436.572 195.087C436.95 195.065 437.226 195.36 437.231 195.71C437.235 195.883 437.596 212.754 437.8 229.491C438.22 263.735 437.66 264.047 437.12 264.355C437.023 264.409 436.908 264.435 436.802 264.435Z" fill="#BDB8FF"/>
<path d="M442.823 263.976C442.603 263.976 442.39 263.862 442.267 263.66C442.106 263.382 442.17 263.04 442.412 262.842C443.928 260.252 442.76 220.232 441.66 195.516C441.643 195.162 441.919 194.863 442.276 194.851C442.632 194.838 442.934 195.108 442.951 195.461C442.959 195.626 443.694 212.261 444.123 228.863C445.002 262.809 443.796 263.508 443.155 263.887C443.053 263.946 442.934 263.976 442.823 263.976Z" fill="#BDB8FF"/>
<path d="M448.578 263.445C448.357 263.445 448.149 263.335 448.025 263.141C447.843 262.842 447.941 262.442 448.242 262.261C450.578 260.138 448.73 220.021 447.011 195.23C446.981 194.876 447.253 194.573 447.609 194.543C447.953 194.522 448.276 194.792 448.297 195.141C448.306 195.31 449.44 211.697 450.115 228.147C451.495 261.789 449.686 262.889 448.913 263.352C448.811 263.42 448.692 263.445 448.578 263.445Z" fill="#BDB8FF"/>
<path d="M454.085 262.855C453.869 262.855 453.661 262.75 453.538 262.56C453.347 262.257 453.436 261.861 453.741 261.671C455.453 260.593 456.502 241.501 452.009 194.872C451.975 194.522 452.234 194.206 452.586 194.172C452.939 194.139 453.262 194.396 453.291 194.75C453.313 194.91 454.854 211.052 455.801 227.347C457.733 260.673 455.334 262.185 454.429 262.754C454.323 262.821 454.209 262.855 454.085 262.855Z" fill="#BDB8FF"/>
<path d="M459.368 262.189C459.16 262.189 458.952 262.088 458.829 261.903C458.633 261.604 458.71 261.208 459.011 261.014C460.022 260.353 462.133 255.66 459.903 226.563C458.676 210.45 456.697 194.611 456.672 194.446C456.633 194.097 456.884 193.776 457.236 193.734C457.602 193.688 457.916 193.937 457.954 194.29C457.975 194.446 459.958 210.319 461.194 226.462C463.721 259.46 460.71 261.435 459.725 262.08C459.614 262.156 459.491 262.189 459.368 262.189Z" fill="#BDB8FF"/>
<path d="M464.447 261.452C464.243 261.452 464.044 261.36 463.916 261.178C463.717 260.888 463.785 260.492 464.078 260.285C465.589 259.249 467.717 253.368 465.025 225.611C463.479 209.671 461.054 194.113 461.029 193.958C460.973 193.604 461.215 193.284 461.564 193.225C461.92 193.17 462.252 193.41 462.303 193.76C463.309 200.167 471.908 256.464 464.817 261.343C464.706 261.414 464.574 261.452 464.447 261.452Z" fill="#BDB8FF"/>
<path d="M469.343 260.648C469.144 260.648 468.948 260.555 468.821 260.382C468.613 260.096 468.677 259.696 468.965 259.485C475.255 254.952 468.295 210.248 465.088 193.401C465.02 193.056 465.25 192.719 465.598 192.652C465.955 192.588 466.29 192.816 466.354 193.161C466.388 193.313 469.288 208.609 471.174 224.406C475.025 256.696 471.038 259.578 469.721 260.521C469.611 260.605 469.475 260.648 469.343 260.648Z" fill="#BDB8FF"/>
<path d="M474.074 259.763C473.883 259.763 473.688 259.674 473.56 259.514C473.344 259.232 473.395 258.828 473.679 258.613C480.775 253.233 472.613 209.266 468.872 192.782C468.796 192.437 469.012 192.091 469.365 192.016C469.713 191.936 470.057 192.159 470.133 192.5C470.171 192.647 473.552 207.623 475.794 223.235C478.834 244.408 478.389 256.654 474.465 259.628C474.35 259.721 474.214 259.763 474.074 259.763Z" fill="#BDB8FF"/>
<path d="M478.656 258.802C478.465 258.802 478.278 258.718 478.155 258.567C477.93 258.289 477.972 257.884 478.248 257.665C480.932 255.512 483.225 247.61 478.919 222.191C476.312 206.831 472.452 192.247 472.414 192.1C472.32 191.759 472.524 191.409 472.868 191.316C473.216 191.228 473.569 191.43 473.658 191.775C474.295 194.168 489.154 250.567 479.059 258.659C478.941 258.756 478.796 258.802 478.656 258.802Z" fill="#BDB8FF"/>
<path d="M483.098 257.762C482.915 257.762 482.733 257.682 482.605 257.534C482.372 257.265 482.406 256.865 482.678 256.633C486.877 253.069 487.026 240.701 483.115 220.864C480.125 205.719 475.764 191.502 475.722 191.358C475.62 191.021 475.811 190.659 476.155 190.558C476.499 190.457 476.856 190.646 476.957 190.983C477 191.127 481.374 205.403 484.38 220.607C488.449 241.223 488.16 253.667 483.518 257.61C483.395 257.711 483.247 257.762 483.098 257.762Z" fill="#BDB8FF"/>
<path d="M487.408 256.637C487.238 256.637 487.06 256.561 486.933 256.422C486.691 256.165 486.716 255.757 486.979 255.521C491.506 251.456 491.553 238.978 487.12 219.44C483.739 204.527 478.89 190.693 478.843 190.554C478.724 190.221 478.898 189.854 479.238 189.737C479.578 189.619 479.943 189.8 480.062 190.133C480.864 192.407 499.541 245.958 487.846 256.469C487.723 256.582 487.57 256.637 487.408 256.637Z" fill="#BDB8FF"/>
<path d="M491.604 255.428C491.434 255.428 491.268 255.365 491.137 255.23C490.891 254.977 490.899 254.573 491.154 254.329C495.974 249.728 495.901 237.141 490.954 217.919C487.183 203.251 481.845 189.821 481.79 189.686C481.658 189.357 481.824 188.987 482.155 188.86C482.487 188.725 482.865 188.886 482.996 189.214C483.875 191.426 504.437 243.435 492.05 255.247C491.927 255.369 491.765 255.428 491.604 255.428Z" fill="#BDB8FF"/>
<path d="M495.672 254.139C495.511 254.139 495.354 254.08 495.222 253.954C494.971 253.709 494.967 253.301 495.213 253.052C507.609 240.49 484.835 189.282 484.605 188.763C484.461 188.439 484.605 188.06 484.932 187.917C485.259 187.773 485.642 187.921 485.786 188.245C485.841 188.372 491.68 201.448 495.876 215.943C501.549 235.587 501.638 248.372 496.135 253.945C496.012 254.076 495.842 254.139 495.672 254.139Z" fill="#BDB8FF"/>
<path d="M499.63 252.77C499.473 252.77 499.316 252.715 499.188 252.597C498.929 252.357 498.912 251.957 499.154 251.692C512.102 237.756 487.57 188.266 487.319 187.773C487.158 187.453 487.289 187.07 487.612 186.91C487.926 186.754 488.317 186.885 488.474 187.196C489.51 189.265 513.652 237.984 500.106 252.559C499.978 252.698 499.8 252.77 499.63 252.77Z" fill="#BDB8FF"/>
<path d="M503.46 251.321C503.312 251.321 503.163 251.266 503.036 251.165C502.772 250.933 502.743 250.525 502.976 250.259C516.412 234.908 490.228 187.188 489.96 186.708C489.791 186.396 489.901 186.008 490.219 185.84C490.529 185.667 490.92 185.781 491.09 186.093C491.158 186.215 497.885 198.402 502.815 212.379C509.49 231.302 509.873 244.332 503.953 251.098C503.821 251.241 503.643 251.321 503.46 251.321Z" fill="#BDB8FF"/>
<path d="M507.176 249.8C507.027 249.8 506.883 249.75 506.764 249.653C506.488 249.429 506.446 249.021 506.675 248.751C520.548 231.964 492.848 186.034 492.564 185.57C492.381 185.267 492.479 184.871 492.784 184.69C493.09 184.504 493.485 184.601 493.668 184.909C493.744 185.023 500.861 196.759 506.123 210.467C513.249 229.032 513.771 242.184 507.673 249.564C507.545 249.716 507.359 249.8 507.176 249.8Z" fill="#BDB8FF"/>
<path d="M463.05 192.862C462.744 192.862 462.477 192.643 462.413 192.336L460.956 184.454C460.888 184.108 461.122 183.771 461.47 183.708C461.823 183.645 462.158 183.873 462.222 184.222L463.687 192.1C463.751 192.454 463.521 192.786 463.169 192.85C463.126 192.854 463.092 192.862 463.05 192.862Z" fill="#BDB8FF"/>
<path d="M467.81 192.218C467.513 192.218 467.246 192.016 467.182 191.716L465.611 184.631C465.534 184.285 465.755 183.94 466.103 183.868C466.451 183.793 466.791 184.012 466.872 184.357L468.439 191.438C468.519 191.788 468.294 192.129 467.946 192.205C467.899 192.214 467.853 192.218 467.81 192.218Z" fill="#BDB8FF"/>
<path d="M472.583 191.514C472.295 191.514 472.036 191.325 471.959 191.038L470.295 184.753C470.205 184.408 470.413 184.058 470.757 183.969C471.101 183.877 471.458 184.079 471.547 184.424L473.212 190.714C473.297 191.055 473.093 191.405 472.749 191.493C472.694 191.51 472.634 191.514 472.583 191.514Z" fill="#BDB8FF"/>
<path d="M477.335 190.743C477.064 190.743 476.809 190.566 476.72 190.293L474.979 184.812C474.872 184.475 475.063 184.113 475.403 184.007C475.743 183.898 476.108 184.083 476.21 184.424L477.951 189.909C478.062 190.246 477.875 190.604 477.535 190.714C477.467 190.731 477.403 190.743 477.335 190.743Z" fill="#BDB8FF"/>
<path d="M482.024 189.897C481.769 189.897 481.518 189.737 481.421 189.484L479.611 184.808C479.488 184.479 479.654 184.108 479.985 183.978C480.321 183.852 480.694 184.016 480.822 184.349L482.631 189.025C482.758 189.353 482.593 189.728 482.257 189.854C482.181 189.88 482.104 189.897 482.024 189.897Z" fill="#BDB8FF"/>
<path d="M486.61 188.974C486.364 188.974 486.139 188.839 486.024 188.608L484.168 184.74C484.015 184.424 484.151 184.037 484.474 183.885C484.801 183.734 485.183 183.873 485.336 184.193L487.192 188.06C487.345 188.376 487.205 188.759 486.886 188.911C486.797 188.953 486.703 188.974 486.61 188.974Z" fill="#BDB8FF"/>
<path d="M491.039 187.967C490.823 187.967 490.61 187.858 490.487 187.66L488.606 184.614C488.419 184.311 488.517 183.919 488.818 183.734C489.124 183.548 489.523 183.641 489.706 183.94L491.587 186.994C491.774 187.293 491.68 187.689 491.375 187.875C491.273 187.938 491.154 187.967 491.039 187.967Z" fill="#BDB8FF"/>
<path d="M377.1 188.632L400.158 195.83L426.13 197.35V197.35C445.38 197.365 464.435 193.505 482.162 186.001L483.878 185.275" stroke="#BDB8FF" stroke-width="8"/>
</svg>
