<svg width="97" height="58" viewBox="0 0 97 58" fill="none" xmlns="http://www.w3.org/2000/svg">
<path fill-rule="evenodd" clip-rule="evenodd" d="M48.5 0C35.5667 0 27.4833 6.43636 24.25 19.3091C29.1 12.8727 34.7583 10.4591 41.225 12.0682C44.9146 12.9854 47.5516 15.6511 50.4705 18.5993C55.2253 23.4033 60.7292 28.9636 72.75 28.9636C85.6833 28.9636 93.7667 22.5273 97 9.65455C92.15 16.0909 86.4917 18.5045 80.025 16.8955C76.3354 15.9783 73.6984 13.3125 70.7795 10.3643C66.0247 5.5603 60.5208 0 48.5 0ZM24.25 28.9636C11.3167 28.9636 3.23333 35.4 0 48.2727C4.85 41.8364 10.5083 39.4227 16.975 41.0318C20.6646 41.9508 23.3016 44.6147 26.2205 47.5629C30.9753 52.367 36.4792 57.9273 48.5 57.9273C61.4333 57.9273 69.5167 51.4909 72.75 38.6182C67.9 45.0545 62.2417 47.4682 55.775 45.8591C52.0854 44.9419 49.4484 42.2762 46.5295 39.328C41.7747 34.5239 36.2708 28.9636 24.25 28.9636Z" fill="#B988C5"/>
</svg>
